<?xml version="1.0" encoding="utf-8"?>
<!-- Generator: Adobe Illustrator 21.1.0, SVG Export Plug-In . SVG Version: 6.00 Build 0)  -->
<svg version="1.1" id="Layer_1" xmlns="http://www.w3.org/2000/svg" xmlns:xlink="http://www.w3.org/1999/xlink" x="0px" y="0px"
	 width="77px" height="66.5px" viewBox="0 0 77 66.5" style="enable-background:new 0 0 77 66.5;" xml:space="preserve">
<style type="text/css">
	.st0{fill:#FFFFFF;}
</style>
<g>
	<path class="st0" d="M43.3,6.5c-0.8-0.4-1.8-0.4-2.5,0.1L18.6,21h-8.2c-1.4,0-2.5,1.1-2.5,2.5v21.7c0,1.4,1.1,2.5,2.5,2.5h8.2
		l22.2,14.5c0.4,0.3,0.9,0.4,1.3,0.4c0.4,0,0.8-0.1,1.2-0.3c0.8-0.4,1.3-1.3,1.3-2.2V8.7C44.6,7.7,44.1,6.9,43.3,6.5z"/>
	<path class="st0" d="M65.8,34.3l7.1-7.1c0.8-0.8,0.8-2.2,0-3c-0.8-0.8-2.2-0.8-3,0l-7.1,7.1l-7.1-7.1c-0.8-0.8-2.2-0.8-3,0
		c-0.8,0.8-0.8,2.2,0,3l7.1,7.1l-7.1,7.1c-0.8,0.8-0.8,2.2,0,3c0.4,0.4,0.9,0.6,1.5,0.6c0.5,0,1.1-0.2,1.5-0.6l7.1-7.1l7.1,7.1
		c0.4,0.4,0.9,0.6,1.5,0.6s1.1-0.2,1.5-0.6c0.8-0.8,0.8-2.2,0-3L65.8,34.3z"/>
</g>
</svg>
