<?xml version="1.0" encoding="utf-8"?>
<!-- Generator: Adobe Illustrator 21.1.0, SVG Export Plug-In . SVG Version: 6.00 Build 0)  -->
<svg version="1.1" id="Layer_1" xmlns="http://www.w3.org/2000/svg" xmlns:xlink="http://www.w3.org/1999/xlink" x="0px" y="0px"
	 width="138px" height="131px" viewBox="0 0 138 131" style="enable-background:new 0 0 138 131;" xml:space="preserve">
<style type="text/css">
	.st0{fill:#FFFFCC;}
	.st1{fill:#F5F5F5;}
</style>
<g>
	<g id="XMLID_1_">
		<g>
			<path class="st0" d="M55.8,24.2v82.5c0,4.9-4,8.9-8.9,8.9s-8.9-4-8.9-8.9V24.2c0-4.9,4-8.9,8.9-8.9S55.8,19.3,55.8,24.2z"/>
			<path class="st1" d="M46.8,15.3c-4.9,0-8.9,4-8.9,8.9v82.5c0,4.9,4,8.9,8.9,8.9s8.9-4,8.9-8.9V24.2
				C55.8,19.3,51.8,15.3,46.8,15.3z M60.1,106.8c0,7.3-5.9,13.2-13.3,13.2c-7.3,0-13.2-5.9-13.2-13.2V24.2c0-7.3,5.9-13.2,13.2-13.2
				c7.3,0,13.3,5.9,13.3,13.2V106.8z"/>
		</g>
		<g>
		</g>
	</g>
</g>
<g>
	<g id="XMLID_2_">
		<g>
			<path class="st0" d="M100.1,24.2v82.5c0,4.9-4,8.9-8.9,8.9c-4.9,0-8.9-4-8.9-8.9V24.2c0-4.9,4-8.9,8.9-8.9
				C96.1,15.3,100.1,19.3,100.1,24.2z"/>
			<path class="st1" d="M100.1,24.2c0-4.9-4-8.9-8.9-8.9c-4.9,0-8.9,4-8.9,8.9v82.5c0,4.9,4,8.9,8.9,8.9c4.9,0,8.9-4,8.9-8.9V24.2z
				 M91.2,11c7.3,0,13.2,5.9,13.2,13.2v82.5c0,7.3-5.9,13.2-13.2,13.2c-7.3,0-13.3-5.9-13.3-13.2V24.2C77.9,16.9,83.8,11,91.2,11z"
				/>
		</g>
		<g>
		</g>
	</g>
</g>
<g>
	<g>
		<path class="st1" d="M42.7,22.1c-1.2,0-2.2,1-2.2,2.2v4.3c0,1.2,1,2.2,2.2,2.2s2.2-1,2.2-2.2v-4.3C44.9,23,43.9,22.1,42.7,22.1z"
			/>
	</g>
</g>
<g>
	<g>
		<path class="st1" d="M42.7,34.4c-1.2,0-2.2,1-2.2,2.2v51.1c0,1.2,1,2.2,2.2,2.2s2.2-1,2.2-2.2V36.6C44.9,35.4,43.9,34.4,42.7,34.4
			z"/>
	</g>
</g>
</svg>
