<?xml version="1.0" encoding="utf-8"?>
<!-- Generator: Adobe Illustrator 21.1.0, SVG Export Plug-In . SVG Version: 6.00 Build 0)  -->
<svg version="1.1" id="Layer_1" xmlns="http://www.w3.org/2000/svg" xmlns:xlink="http://www.w3.org/1999/xlink" x="0px" y="0px"
	 width="134px" height="128px" viewBox="0 0 134 128" style="enable-background:new 0 0 134 128;" xml:space="preserve">
<style type="text/css">
	.st0{fill:#99FF99;}
	.st1{fill:#FFFFFF;}
</style>
<g>
	<g id="XMLID_1_">
		<g>
			<path class="st0" d="M49.8,114.9c-2.5,1.7-5.6,1.8-8.2,0.4c-2.7-1.4-4.2-4-4.2-7V19.7c0-3,1.6-5.6,4.2-7c1.2-0.6,2.5-0.9,3.8-0.9
				c1.5,0,3.1,0.5,4.5,1.4l65.4,44.3c2.2,1.5,3.5,3.9,3.5,6.6c0,2.7-1.3,5.1-3.5,6.6L49.8,114.9z"/>
			<path class="st1" d="M52.3,118.6c-2.1,1.4-4.5,2.2-7,2.2c-2,0-4-0.5-5.9-1.5c-4.2-2.2-6.6-6.3-6.6-11V19.7c0-4.7,2.5-8.8,6.6-11
				c4.2-2.2,9-1.9,12.9,0.7l65.4,44.3c3.4,2.3,5.5,6.2,5.5,10.3c0,4.2-2.1,8-5.5,10.3L52.3,118.6z M115.2,57.4L49.8,13.1
				c-1.4-0.9-2.9-1.4-4.5-1.4c-1.3,0-2.5,0.3-3.8,0.9c-2.7,1.4-4.2,4-4.2,7v88.5c0,3,1.6,5.6,4.2,7c2.6,1.4,5.7,1.2,8.2-0.4
				l65.4-44.3c2.2-1.5,3.5-3.9,3.5-6.6C118.7,61.3,117.4,58.9,115.2,57.4z"/>
		</g>
		<g>
		</g>
	</g>
</g>
<g>
	<g>
		<path class="st1" d="M101.9,51.9l-3.7-2.5c-1-0.7-2.4-0.4-3.1,0.6c-0.7,1-0.4,2.4,0.6,3.1l3.7,2.5c0.4,0.3,0.8,0.4,1.3,0.4
			c0.7,0,1.4-0.3,1.9-1C103.2,54.1,102.9,52.7,101.9,51.9z"/>
	</g>
</g>
<g>
	<g>
		<path class="st1" d="M91.3,44.7L47.2,14.9c-1-0.7-2.4-0.4-3.1,0.6c-0.7,1-0.4,2.4,0.6,3.1l44.1,29.9c0.4,0.3,0.8,0.4,1.3,0.4
			c0.7,0,1.4-0.3,1.9-1C92.6,46.9,92.3,45.4,91.3,44.7z"/>
	</g>
</g>
</svg>
