<?xml version="1.0" encoding="utf-8"?>
<!-- Generator: Adobe Illustrator 21.1.0, SVG Export Plug-In . SVG Version: 6.00 Build 0)  -->
<svg version="1.1" id="Layer_1" xmlns="http://www.w3.org/2000/svg" xmlns:xlink="http://www.w3.org/1999/xlink" x="0px" y="0px"
	 width="134px" height="128px" viewBox="0 0 134 128" style="enable-background:new 0 0 134 128;" xml:space="preserve">
<style type="text/css">
	.st0{fill:#99FF99;}
	.st1{fill:#FFFFFF;}
</style>
<g>
	<g id="XMLID_1_">
		<g>
			<path class="st0" d="M115.2,57.4c2.2,1.5,3.5,3.9,3.5,6.6c0,2.7-1.3,5.1-3.5,6.6l-65.4,44.3c-2.5,1.7-5.6,1.8-8.2,0.4
				c-2.7-1.4-4.2-4-4.2-7V19.7c0-3,1.6-5.6,4.2-7c1.2-0.6,2.5-0.9,3.8-0.9c1.5,0,3.1,0.5,4.5,1.4L115.2,57.4z"/>
		</g>
		<g>
		</g>
	</g>
</g>
<g>
	<g>
		<path class="st1" d="M101.9,51.9l-3.7-2.5c-1-0.7-2.4-0.4-3.1,0.6c-0.7,1-0.4,2.4,0.6,3.1l3.7,2.5c0.4,0.3,0.8,0.4,1.3,0.4
			c0.7,0,1.4-0.3,1.9-1C103.2,54.1,102.9,52.7,101.9,51.9z"/>
	</g>
</g>
<g>
	<g>
		<path class="st1" d="M91.3,44.7L47.2,14.9c-1-0.7-2.4-0.4-3.1,0.6c-0.7,1-0.4,2.4,0.6,3.1l44.1,29.9c0.4,0.3,0.8,0.4,1.3,0.4
			c0.7,0,1.4-0.3,1.9-1C92.6,46.9,92.3,45.4,91.3,44.7z"/>
	</g>
</g>
</svg>
