<?xml version="1.0" encoding="utf-8"?>
<!-- Generator: Adobe Illustrator 21.1.0, SVG Export Plug-In . SVG Version: 6.00 Build 0)  -->
<svg version="1.1" id="Layer_1" xmlns="http://www.w3.org/2000/svg" xmlns:xlink="http://www.w3.org/1999/xlink" x="0px" y="0px"
	 width="512px" height="512px" viewBox="0 0 512 512" style="enable-background:new 0 0 512 512;" xml:space="preserve">
<style type="text/css">
	.st0{fill:#FFFFFF;}
	.st1{fill:#FCFCFC;}
</style>
<g>
	<g>
		<path class="st0" d="M150.2,414.7l-52.9-52.9c-6.6-6.6-17.2-6.6-23.7,0s-6.6,17.2,0,23.7l52.9,52.9c6.6,6.6,17.2,6.6,23.7,0
			C156.7,431.9,156.7,421.3,150.2,414.7z"/>
	</g>
</g>
<g>
	<g>
		<path class="st0" d="M205.4,359.5l-52.9-52.9c-6.6-6.6-17.2-6.6-23.7,0c-6.6,6.6-6.6,17.2,0,23.7l52.9,52.9
			c6.6,6.6,17.2,6.6,23.7,0C211.9,376.7,211.9,366.1,205.4,359.5z"/>
	</g>
</g>
<g>
	<g>
		<path class="st1" d="M504.1,29L483,7.9C478,2.8,471.2,0,464,0c-7.2,0-13.9,2.8-19,7.9l-11.7,11.7c-2.7-0.7-5.4-1-8.3-1
			c-8.9,0-17.3,3.5-23.7,9.8l-1.5,1.5l-7.9-7.9c-6.6-6.6-17.2-6.6-23.7,0c-6.6,6.6-6.6,17.2,0,23.7l7.9,7.9L359,70.8l-7.9-7.9
			c-6.6-6.6-17.2-6.6-23.7,0s-6.6,17.2,0,23.7l7.9,7.9l-10,10l-7.9-7.9c-6.6-6.6-17.2-6.6-23.7,0s-6.6,17.2,0,23.7l7.9,7.9
			l-26.9,26.9l-7.9-7.9c-6.6-6.6-17.2-6.6-23.7,0s-6.6,17.2,0,23.7l7.9,7.9l-12.4,12.4l-7.9-7.9c-6.6-6.6-17.2-6.6-23.7,0
			s-6.6,17.2,0,23.7l7.8,7.8c-24.7,21.7-58.2,33-91.9,29.6c-34.2-3.4-67.7,6.4-91.6,30.3C-14.2,320-8.1,396.2,37.3,451l-8.8,8.8
			c-6.6,6.6-6.6,17.2,0,23.7s17.2,6.6,23.7,0l8.8-8.8c51.8,42.8,128.9,53.6,176.2,6.3c23.1-23.1,33.9-55.6,30.3-91.6
			c-3.6-36.2,9.1-71.8,34.8-97.5l181.4-181.4c8.6-8.6,11.5-20.8,8.8-31.9L504.1,67C514.6,56.5,514.6,39.5,504.1,29z M278.6,268.2
			c-32.9,32.9-49.1,78.3-44.5,124.6c2.6,25.7-4.7,48.6-20.6,64.5c-34.3,34.3-97.8,25.8-141.2-17.6C28.5,396,20.6,332.6,54.7,298.5
			c17.2-17.2,40.8-23,64.5-20.6c46.7,4.7,92.6-12.5,124.6-44.5L425.1,52.1c0,0,0,0,0,0c0.1,0.1,0.1,0.1,0.2,0.2l34.3,34.3
			c0.1,0.1,0.1,0.2,0.2,0.2L278.6,268.2z M472.1,51.6l-11.6-11.6l3.6-3.6L475.7,48L472.1,51.6z"/>
	</g>
</g>
</svg>
