<?xml version="1.0" encoding="utf-8"?>
<!-- Generator: Adobe Illustrator 21.1.0, SVG Export Plug-In . SVG Version: 6.00 Build 0)  -->
<svg version="1.1" id="Layer_1" xmlns="http://www.w3.org/2000/svg" xmlns:xlink="http://www.w3.org/1999/xlink" x="0px" y="0px"
	 width="82px" height="66.8px" viewBox="0 0 82 66.8" style="enable-background:new 0 0 82 66.8;" xml:space="preserve">
<style type="text/css">
	.st0{fill:#339933;}
</style>
<g>
	<path class="st0" d="M40.3,5.6c-0.8-0.4-1.8-0.4-2.6,0.1L15.2,20.3H6.9c-1.4,0-2.5,1.1-2.5,2.5v21.8c0,1.4,1.1,2.5,2.5,2.5h8.3
		l22.5,14.6c0.4,0.3,0.9,0.4,1.4,0.4c0.4,0,0.8-0.1,1.2-0.3c0.8-0.4,1.3-1.3,1.3-2.2V7.8C41.6,6.9,41.1,6.1,40.3,5.6z"/>
	<path class="st0" d="M48.5,51.3c0.2,0,0.4,0,0.6-0.1c5.7-2.2,9.6-9.1,9.6-17c0-7.1-3.1-13.4-8-16.3c-0.8-0.5-1.9-0.2-2.4,0.6
		c-0.5,0.8-0.2,1.9,0.6,2.4c3.8,2.2,6.2,7.4,6.2,13.2c0,6.4-3,12.1-7.4,13.8c-0.9,0.3-1.4,1.4-1,2.3C47.2,50.9,47.8,51.3,48.5,51.3z
		"/>
	<path class="st0" d="M53.1,58.6c0.2,0,0.4,0,0.6-0.1c8.1-3.1,13.7-13.2,13.7-24.5c0-10.2-4.5-19.3-11.4-23.4
		c-0.8-0.5-1.9-0.2-2.4,0.6c-0.5,0.8-0.2,1.9,0.6,2.4c5.9,3.4,9.7,11.4,9.7,20.4c0,9.9-4.7,18.6-11.4,21.2c-0.9,0.3-1.4,1.4-1,2.3
		C51.8,58.2,52.4,58.6,53.1,58.6z"/>
	<path class="st0" d="M57.9,65.6c-0.7,0-1.4-0.4-1.7-1.1c-0.4-0.9,0.1-1.9,1-2.3c9.2-3.5,15.6-15.2,15.6-28.3c0-11.8-5.1-22.4-13-27
		c-0.8-0.5-1.1-1.6-0.6-2.4c0.5-0.8,1.6-1.1,2.4-0.6c9,5.2,14.8,17,14.8,30.1c0,14.5-7.3,27.5-17.9,31.6
		C58.3,65.5,58.1,65.6,57.9,65.6z"/>
</g>
</svg>
